<?xml version="1.0" standalone="no"?>
<!DOCTYPE svg PUBLIC "-//W3C//DTD SVG 20010904//EN"
 "http://www.w3.org/TR/2001/REC-SVG-20010904/DTD/svg10.dtd">
<svg version="1.0" xmlns="http://www.w3.org/2000/svg"
 width="700.000000pt" height="700.000000pt" viewBox="0 0 700.000000 700.000000"
 preserveAspectRatio="xMidYMid meet">
<metadata>
Created by potrace 1.11, written by Peter Selinger 2001-2013
</metadata>
<g transform="translate(0.000000,700.000000) scale(0.100000,-0.100000)"
fill="#000000" stroke="none">
<path d="M6250 6969 c-52 -17 -130 -42 -172 -55 -118 -36 -222 -69 -333 -104
-55 -17 -127 -39 -160 -50 -194 -59 -522 -162 -535 -167 -8 -4 -17 -7 -20 -8
-3 0 -14 -4 -25 -7 -11 -4 -81 -25 -155 -48 -74 -24 -162 -51 -195 -62 -33
-11 -87 -28 -120 -38 -33 -10 -177 -55 -320 -100 -143 -45 -330 -103 -415
-130 -85 -27 -243 -76 -350 -110 -203 -64 -316 -100 -460 -145 -135 -42 -347
-109 -590 -185 -124 -40 -252 -80 -285 -90 -33 -10 -177 -55 -320 -100 -143
-45 -276 -86 -295 -92 -19 -5 -42 -12 -50 -15 -8 -3 -19 -7 -25 -8 -11 -3
-532 -167 -604 -191 -33 -10 -100 -14 -265 -14 -236 0 -268 -5 -301 -49 -20
-26 -20 -42 -21 -2461 -1 -2647 -5 -2485 53 -2575 37 -57 89 -103 153 -134
l55 -26 2970 -3 c2150 -2 2984 0 3022 8 135 29 233 123 270 260 6 22 9 779 9
2000 -1 1876 -2 1967 -19 1993 -10 16 -30 33 -45 40 -20 8 -627 11 -2434 12
-2462 2 -2438 1 -2438 36 0 5 53 25 118 45 124 38 458 143 892 279 146 46 389
122 540 170 151 47 322 101 380 119 96 31 248 78 260 81 3 1 12 4 20 8 8 3 69
22 135 42 66 20 167 52 225 70 58 19 251 79 430 135 179 56 379 119 445 140
66 21 181 57 255 80 74 23 160 50 190 60 30 10 78 25 105 33 49 14 319 99 500
157 50 16 151 47 225 70 166 52 196 69 210 120 9 35 5 57 -45 217 -78 248 -96
306 -154 488 -27 88 -56 182 -63 209 -7 26 -26 64 -43 83 -42 49 -84 51 -205
12z"/>
</g>
</svg>
